<svg width="506" height="307" viewBox="0 0 506 307" fill="none" xmlns="http://www.w3.org/2000/svg">
<path d="M331.231 4.5H249C245.962 4.5 243.5 6.96243 243.5 10V82C243.5 85.0376 245.962 87.5 249 87.5H272.315H348C351.038 87.5 353.5 85.0376 353.5 82V62.65V10C353.5 6.96243 351.038 4.5 348 4.5H331.231Z" stroke="white" stroke-width="9"/>
<path d="M309.09 87H286.166C285.553 87 285.085 87.5489 285.17 88.1558C286.877 100.35 284.877 106.358 276.335 112.575C275.527 113.164 275.925 114.5 276.925 114.5H319.314C320.24 114.5 320.679 113.336 320.011 112.694C313.911 106.842 311.408 101.002 310.089 87.9118C310.037 87.3985 309.606 87 309.09 87Z" stroke="white" stroke-width="8"/>
<rect x="253" y="110" width="91" height="8" rx="4" fill="white"/>
<rect x="163" y="5" width="59" height="108" rx="15" stroke="white" stroke-width="10"/>
<rect x="174" y="33" width="37" height="9" rx="4.5" fill="white"/>
<rect x="174" y="58" width="37" height="9" rx="4.5" fill="white"/>
<circle cx="192.5" cy="92.5" r="4.5" fill="white"/>
<path d="M15.2567 232C13.2393 232 11.756 231.466 10.8067 230.398C9.91666 229.271 9.62 227.698 9.91666 225.681L18.1937 173.794C18.4903 172.014 19.143 170.709 20.1517 169.878C21.1603 168.988 22.5547 168.543 24.3347 168.543C26.2333 168.543 27.6277 169.107 28.5177 170.234C29.4077 171.302 29.7043 172.815 29.4077 174.773L21.9317 222.299H46.7627C48.424 222.299 49.6997 222.655 50.5897 223.367C51.4797 224.02 51.9247 224.969 51.9247 226.215C51.9247 228.054 51.3907 229.478 50.3227 230.487C49.314 231.496 47.9197 232 46.1397 232H15.2567ZM72.5511 232.89C69.4658 232.89 66.8254 232.237 64.6301 230.932C62.4348 229.627 60.8624 227.609 59.9131 224.88C59.0231 222.151 58.9044 218.68 59.5571 214.467L63.0281 192.929C63.3248 191.149 63.9774 189.844 64.9861 189.013C65.9948 188.182 67.3594 187.767 69.0801 187.767C70.9194 187.767 72.2544 188.301 73.0851 189.369C73.9751 190.378 74.2718 191.891 73.9751 193.908L70.7711 214.378C70.2964 217.641 70.5338 220.074 71.4831 221.676C72.4918 223.278 74.3311 224.079 77.0011 224.079C80.3238 224.079 83.0234 222.981 85.1001 220.786C87.1768 218.591 88.5118 215.594 89.1051 211.797L92.0421 192.929C92.3388 191.149 92.9914 189.844 94.0001 189.013C95.0088 188.182 96.3734 187.767 98.0941 187.767C99.9928 187.767 101.357 188.301 102.188 189.369C103.019 190.437 103.286 191.98 102.989 193.997L97.7381 227.461C97.2041 230.962 95.1868 232.712 91.6861 232.712C89.9654 232.712 88.6898 232.237 87.8591 231.288C87.0284 230.339 86.7318 228.885 86.9691 226.927L87.8591 220.519L88.4821 222.922C86.9394 226.185 84.7738 228.677 81.9851 230.398C79.2558 232.059 76.1111 232.89 72.5511 232.89ZM113.945 232.712C112.224 232.712 110.949 232.148 110.118 231.021C109.347 229.834 109.109 228.232 109.406 226.215L114.657 193.285C114.954 191.446 115.636 190.081 116.704 189.191C117.772 188.242 119.226 187.767 121.065 187.767C122.786 187.767 124.032 188.331 124.803 189.458C125.634 190.585 125.901 192.187 125.604 194.264L120.353 227.194C120.056 229.033 119.374 230.428 118.306 231.377C117.297 232.267 115.844 232.712 113.945 232.712ZM122.489 179.579C120.472 179.579 118.959 179.104 117.95 178.155C117.001 177.146 116.615 175.752 116.793 173.972C117.03 171.955 117.802 170.442 119.107 169.433C120.412 168.365 122.163 167.831 124.358 167.831C126.375 167.831 127.888 168.335 128.897 169.344C129.906 170.293 130.291 171.658 130.054 173.438C129.817 175.455 129.045 176.998 127.74 178.066C126.494 179.075 124.744 179.579 122.489 179.579ZM149.001 232.89C146.212 232.89 143.483 232.593 140.813 232C138.202 231.466 135.918 230.724 133.96 229.775C132.832 229.241 132.031 228.559 131.557 227.728C131.141 226.838 130.963 225.978 131.023 225.147C131.141 224.257 131.438 223.515 131.913 222.922C132.447 222.269 133.129 221.854 133.96 221.676C134.85 221.498 135.829 221.676 136.897 222.21C138.795 223.159 140.783 223.871 142.86 224.346C144.936 224.821 146.983 225.058 149.001 225.058C151.789 225.058 153.925 224.554 155.409 223.545C156.892 222.477 157.634 221.083 157.634 219.362C157.634 218.175 157.218 217.196 156.388 216.425C155.557 215.654 154.341 215.12 152.739 214.823L144.551 213.132C141.287 212.479 138.736 211.204 136.897 209.305C135.117 207.347 134.227 204.914 134.227 202.007C134.227 199.337 134.968 196.934 136.452 194.798C137.994 192.603 140.219 190.852 143.127 189.547C146.093 188.242 149.653 187.589 153.807 187.589C155.943 187.589 158.227 187.886 160.66 188.479C163.152 189.013 165.288 189.814 167.068 190.882C168.076 191.475 168.788 192.217 169.204 193.107C169.619 193.938 169.738 194.768 169.56 195.599C169.441 196.37 169.115 197.053 168.581 197.646C168.047 198.18 167.335 198.506 166.445 198.625C165.555 198.744 164.576 198.506 163.508 197.913C162.024 197.082 160.393 196.459 158.613 196.044C156.833 195.629 155.053 195.421 153.273 195.421C150.365 195.421 148.14 195.985 146.598 197.112C145.055 198.18 144.284 199.604 144.284 201.384C144.284 202.452 144.61 203.372 145.263 204.143C145.975 204.914 147.072 205.448 148.556 205.745L156.744 207.436C160.304 208.207 163.003 209.542 164.843 211.441C166.741 213.28 167.691 215.654 167.691 218.561C167.691 223.13 165.97 226.66 162.529 229.152C159.147 231.644 154.637 232.89 149.001 232.89ZM201.134 232.712C199.769 232.712 198.642 232.415 197.752 231.822C196.862 231.169 196.328 230.339 196.15 229.33C195.913 228.262 196.18 227.105 196.951 225.859L229.614 172.459C230.445 171.094 231.364 170.115 232.373 169.522C233.382 168.869 234.628 168.543 236.111 168.543C237.654 168.543 238.929 168.929 239.938 169.7C240.947 170.471 241.659 171.628 242.074 173.171L257.382 225.592C257.857 227.194 257.946 228.529 257.649 229.597C257.352 230.606 256.789 231.377 255.958 231.911C255.127 232.445 254.119 232.712 252.932 232.712C251.271 232.712 249.995 232.297 249.105 231.466C248.274 230.635 247.622 229.36 247.147 227.639L243.854 215.09L247.414 217.493H210.568L215.018 215.357L206.83 229.33C206.177 230.457 205.376 231.318 204.427 231.911C203.537 232.445 202.439 232.712 201.134 232.712ZM234.776 181.626L217.866 210.462L215.908 208.415H245.011L242.608 210.64L234.954 181.626H234.776ZM285.084 248.91C281.524 248.91 278.142 248.495 274.938 247.664C271.793 246.893 269.034 245.825 266.661 244.46C265.652 243.867 264.97 243.125 264.614 242.235C264.258 241.404 264.169 240.574 264.347 239.743C264.525 238.912 264.91 238.171 265.504 237.518C266.097 236.925 266.839 236.539 267.729 236.361C268.619 236.242 269.598 236.48 270.666 237.073C272.564 238.082 274.582 238.883 276.718 239.476C278.913 240.129 281.168 240.455 283.482 240.455C287.042 240.455 289.919 239.654 292.115 238.052C294.31 236.45 295.704 233.869 296.298 230.309L297.722 221.854L298.434 221.943C297.01 224.85 294.933 227.075 292.204 228.618C289.474 230.161 286.419 230.932 283.037 230.932C279.536 230.932 276.48 230.22 273.87 228.796C271.259 227.372 269.212 225.325 267.729 222.655C266.305 219.926 265.593 216.722 265.593 213.043C265.593 209.661 266.097 206.427 267.106 203.342C268.174 200.257 269.657 197.557 271.556 195.243C273.514 192.87 275.857 191.001 278.587 189.636C281.316 188.271 284.372 187.589 287.754 187.589C291.195 187.589 294.191 188.39 296.743 189.992C299.353 191.594 301.163 193.967 302.172 197.112L301.104 199.604L302.083 193.107C302.379 191.268 303.062 189.933 304.13 189.102C305.198 188.212 306.622 187.767 308.402 187.767C310.122 187.767 311.339 188.331 312.051 189.458C312.822 190.585 313.059 192.187 312.763 194.264L307.156 229.686C306.206 235.916 303.892 240.663 300.214 243.926C296.535 247.249 291.492 248.91 285.084 248.91ZM286.508 222.477C289.296 222.477 291.64 221.735 293.539 220.252C295.497 218.709 296.98 216.692 297.989 214.2C298.997 211.649 299.502 208.919 299.502 206.012C299.502 202.927 298.641 200.494 296.921 198.714C295.259 196.934 292.856 196.044 289.712 196.044C286.982 196.044 284.639 196.815 282.681 198.358C280.782 199.841 279.328 201.829 278.32 204.321C277.311 206.813 276.807 209.513 276.807 212.42C276.807 215.565 277.637 218.027 279.299 219.807C281.019 221.587 283.422 222.477 286.508 222.477ZM323.845 232.712C322.065 232.712 320.759 232.178 319.929 231.11C319.157 229.983 318.92 228.41 319.217 226.393L324.468 193.107C324.764 191.327 325.447 189.992 326.515 189.102C327.583 188.212 328.977 187.767 330.698 187.767C332.418 187.767 333.664 188.301 334.436 189.369C335.266 190.437 335.533 191.98 335.237 193.997L334.436 198.981H333.546C334.732 195.48 336.69 192.781 339.42 190.882C342.149 188.924 345.383 187.826 349.121 187.589C350.782 187.47 351.88 187.708 352.414 188.301C353.007 188.894 353.304 189.873 353.304 191.238C353.304 193.196 352.859 194.65 351.969 195.599C351.079 196.489 349.684 197.023 347.786 197.201L345.205 197.468C341.229 197.883 338.381 199.1 336.661 201.117C334.94 203.075 333.783 205.834 333.19 209.394L330.342 227.372C330.104 229.152 329.422 230.487 328.295 231.377C327.227 232.267 325.743 232.712 323.845 232.712ZM375.09 232.89C370.699 232.89 366.872 232.089 363.609 230.487C360.405 228.826 357.913 226.512 356.133 223.545C354.353 220.578 353.463 217.107 353.463 213.132C353.463 208.267 354.472 203.935 356.489 200.138C358.566 196.281 361.414 193.226 365.033 190.971C368.652 188.716 372.806 187.589 377.493 187.589C381.112 187.589 384.138 188.212 386.571 189.458C389.004 190.704 390.932 192.395 392.356 194.531C393.78 196.608 394.729 198.981 395.204 201.651C395.679 204.321 395.768 207.05 395.471 209.839C395.352 211.085 395.026 211.886 394.492 212.242C393.958 212.598 393.216 212.776 392.267 212.776H362.363L363.253 206.368H388.173L386.66 207.703C387.016 205.33 386.927 203.223 386.393 201.384C385.859 199.485 384.85 197.972 383.367 196.845C381.943 195.718 379.955 195.154 377.404 195.154C374.793 195.154 372.598 195.747 370.818 196.934C369.038 198.121 367.644 199.663 366.635 201.562C365.626 203.401 364.944 205.389 364.588 207.525L364.143 210.284C363.431 214.615 364.143 218.057 366.279 220.608C368.415 223.159 371.678 224.435 376.069 224.435C377.849 224.435 379.688 224.257 381.587 223.901C383.486 223.486 385.206 222.833 386.749 221.943C387.876 221.29 388.855 221.023 389.686 221.142C390.576 221.201 391.258 221.528 391.733 222.121C392.267 222.655 392.593 223.337 392.712 224.168C392.831 224.939 392.682 225.77 392.267 226.66C391.911 227.491 391.258 228.232 390.309 228.885C388.232 230.25 385.77 231.258 382.922 231.911C380.074 232.564 377.463 232.89 375.09 232.89ZM417.987 232.89C414.724 232.89 411.846 232.119 409.354 230.576C406.922 229.033 405.023 226.868 403.658 224.079C402.294 221.231 401.611 217.908 401.611 214.111C401.611 209.127 402.472 204.647 404.192 200.672C405.972 196.637 408.494 193.463 411.757 191.149C415.08 188.776 418.996 187.589 423.505 187.589C426.828 187.589 429.765 188.39 432.316 189.992C434.868 191.594 436.648 193.967 437.656 197.112L437.033 197.023L440.682 173.794C440.979 171.955 441.661 170.62 442.729 169.789C443.797 168.958 445.251 168.543 447.09 168.543C448.811 168.543 450.057 169.077 450.828 170.145C451.659 171.213 451.926 172.785 451.629 174.862L443.352 227.016C443.056 228.855 442.373 230.279 441.305 231.288C440.237 232.237 438.784 232.712 436.944 232.712C435.224 232.712 433.978 232.119 433.206 230.932C432.494 229.686 432.316 228.054 432.672 226.037L433.473 221.142L433.562 223.812C431.96 226.601 429.824 228.826 427.154 230.487C424.484 232.089 421.429 232.89 417.987 232.89ZM422.348 224.435C425.078 224.435 427.362 223.664 429.201 222.121C431.1 220.519 432.554 218.413 433.562 215.802C434.571 213.132 435.075 210.165 435.075 206.902C435.075 203.401 434.215 200.731 432.494 198.892C430.833 196.993 428.519 196.044 425.552 196.044C422.882 196.044 420.598 196.815 418.699 198.358C416.801 199.901 415.347 202.007 414.338 204.677C413.33 207.288 412.825 210.254 412.825 213.577C412.825 217.078 413.656 219.777 415.317 221.676C417.038 223.515 419.382 224.435 422.348 224.435ZM468.949 232.89C466.279 232.89 463.847 232.297 461.651 231.11C459.456 229.864 457.676 228.232 456.311 226.215C455.006 224.198 454.353 221.943 454.353 219.451C454.353 216.366 455.214 213.874 456.934 211.975C458.655 210.017 461.325 208.563 464.944 207.614C468.564 206.665 473.192 206.19 478.828 206.19H485.948L484.969 212.598H479.362C475.862 212.598 473.073 212.776 470.996 213.132C468.92 213.488 467.436 214.111 466.546 215.001C465.656 215.891 465.211 217.137 465.211 218.739C465.211 220.816 465.894 222.418 467.258 223.545C468.682 224.672 470.403 225.236 472.42 225.236C474.319 225.236 476.04 224.85 477.582 224.079C479.125 223.248 480.43 222.091 481.498 220.608C482.566 219.065 483.249 217.256 483.545 215.179L485.236 204.588C485.711 201.799 485.266 199.663 483.901 198.18C482.596 196.697 480.282 195.955 476.959 195.955C475.001 195.955 473.103 196.163 471.263 196.578C469.424 196.934 467.525 197.557 465.567 198.447C464.44 198.922 463.431 199.07 462.541 198.892C461.651 198.714 460.91 198.328 460.316 197.735C459.782 197.082 459.486 196.341 459.426 195.51C459.367 194.62 459.604 193.76 460.138 192.929C460.732 192.098 461.681 191.386 462.986 190.793C465.478 189.666 468.059 188.865 470.729 188.39C473.459 187.856 476.01 187.589 478.383 187.589C483.071 187.589 486.749 188.449 489.419 190.17C492.089 191.891 493.899 194.234 494.848 197.201C495.798 200.168 495.976 203.55 495.382 207.347L492.267 227.194C492.03 229.033 491.377 230.428 490.309 231.377C489.301 232.267 487.936 232.712 486.215 232.712C484.613 232.712 483.397 232.208 482.566 231.199C481.795 230.131 481.558 228.588 481.854 226.571L482.744 220.964L483.367 222.744C482.537 225.058 481.35 226.986 479.807 228.529C478.324 230.012 476.633 231.11 474.734 231.822C472.895 232.534 470.967 232.89 468.949 232.89Z" fill="white"/>
<path d="M24.5641 291H13.2121L13.4761 289.746C13.9601 289.548 14.4991 289.361 15.0931 289.185C15.6871 289.009 16.2811 288.877 16.8751 288.789L20.8681 270.045H17.0401L13.7071 275.688H12.3541C12.3541 275.248 12.3761 274.687 12.4201 274.005C12.4861 273.323 12.5521 272.619 12.6181 271.893C12.7061 271.167 12.8051 270.452 12.9151 269.748C13.0251 269.022 13.1461 268.406 13.2781 267.9H34.2991C34.1891 268.428 34.0351 269.044 33.8371 269.748C33.6611 270.452 33.4631 271.167 33.2431 271.893C33.0231 272.619 32.7921 273.323 32.5501 274.005C32.3301 274.665 32.1211 275.226 31.9231 275.688H30.5371L29.6461 270.045H25.8181L21.8251 288.789C22.3751 288.899 22.9141 289.031 23.4421 289.185C23.9701 289.339 24.4321 289.526 24.8281 289.746L24.5641 291ZM34.7508 268.494V267.438C35.0808 267.306 35.4988 267.174 36.0048 267.042C36.5328 266.888 37.0938 266.756 37.6878 266.646C38.3038 266.514 38.9308 266.404 39.5688 266.316C40.2068 266.228 40.8118 266.184 41.3838 266.184L42.0768 266.481L39.3048 279.318H39.4698C39.8878 278.614 40.3498 277.943 40.8558 277.305C41.3838 276.667 41.9338 276.117 42.5058 275.655C43.0778 275.171 43.6828 274.797 44.3208 274.533C44.9588 274.247 45.6078 274.104 46.2678 274.104C47.2798 274.104 48.0608 274.401 48.6108 274.995C49.1608 275.567 49.4358 276.282 49.4358 277.14C49.4358 277.734 49.3808 278.372 49.2708 279.054C49.1608 279.736 49.0288 280.396 48.8748 281.034L46.9938 288.723H49.4358V289.845C48.9958 290.197 48.3468 290.527 47.4888 290.835C46.6528 291.143 45.6958 291.297 44.6178 291.297C43.8918 291.297 43.3638 291.154 43.0338 290.868C42.7038 290.56 42.5388 290.197 42.5388 289.779C42.5388 289.383 42.5828 288.976 42.6708 288.558C42.7808 288.14 42.8908 287.656 43.0008 287.106L44.2218 281.595C44.3758 280.913 44.5078 280.297 44.6178 279.747C44.7498 279.175 44.8158 278.636 44.8158 278.13C44.8158 277.734 44.7278 277.404 44.5518 277.14C44.3978 276.876 44.1558 276.744 43.8258 276.744C43.3198 276.744 42.8138 276.931 42.3078 277.305C41.8018 277.657 41.3288 278.086 40.8888 278.592C40.4488 279.098 40.0528 279.626 39.7008 280.176C39.3708 280.726 39.1288 281.188 38.9748 281.562L37.0278 291H32.4738L36.9288 268.923L34.7508 268.494ZM65.1126 287.403C64.8706 287.843 64.5186 288.305 64.0566 288.789C63.5946 289.251 63.0556 289.68 62.4396 290.076C61.8236 290.45 61.1416 290.758 60.3936 291C59.6456 291.264 58.8646 291.396 58.0506 291.396C56.0926 291.396 54.5636 290.868 53.4636 289.812C52.3856 288.734 51.8466 287.216 51.8466 285.258C51.8466 283.74 52.0886 282.31 52.5726 280.968C53.0566 279.626 53.7276 278.449 54.5856 277.437C55.4656 276.403 56.4996 275.589 57.6876 274.995C58.8976 274.401 60.2176 274.104 61.6476 274.104C62.9676 274.104 64.0566 274.412 64.9146 275.028C65.7726 275.622 66.2016 276.447 66.2016 277.503C66.2016 278.999 65.4536 280.231 63.9576 281.199C62.4836 282.167 60.0856 282.772 56.7636 283.014C56.6976 283.322 56.6426 283.641 56.5986 283.971C56.5766 284.279 56.5656 284.576 56.5656 284.862C56.5656 286.116 56.8846 287.084 57.5226 287.766C58.1606 288.426 58.9746 288.756 59.9646 288.756C60.3826 288.756 60.8006 288.69 61.2186 288.558C61.6366 288.426 62.0326 288.25 62.4066 288.03C62.8026 287.81 63.1546 287.579 63.4626 287.337C63.7926 287.073 64.0786 286.82 64.3206 286.578L65.1126 287.403ZM60.8886 275.985C60.1406 275.985 59.4146 276.392 58.7106 277.206C58.0286 278.02 57.4566 279.395 56.9946 281.331C58.6226 281.287 59.9316 280.924 60.9216 280.242C61.9336 279.56 62.4396 278.669 62.4396 277.569C62.4396 277.129 62.3186 276.755 62.0766 276.447C61.8566 276.139 61.4606 275.985 60.8886 275.985ZM79.1445 276.579H76.8015V275.292C77.2415 275.05 77.7035 274.841 78.1875 274.665C78.6935 274.467 79.1665 274.313 79.6065 274.203L79.8375 273.048C80.1235 271.684 80.5085 270.562 80.9925 269.682C81.4985 268.78 82.0815 268.076 82.7415 267.57C83.4015 267.042 84.1495 266.679 84.9855 266.481C85.8215 266.283 86.7235 266.184 87.6915 266.184C88.3955 266.184 89.1105 266.25 89.8365 266.382C90.5625 266.492 91.1455 266.668 91.5855 266.91C91.6295 267.218 91.6075 267.559 91.5195 267.933C91.4535 268.285 91.3325 268.626 91.1565 268.956C91.0025 269.286 90.8155 269.583 90.5955 269.847C90.3755 270.111 90.1335 270.309 89.8695 270.441L87.4935 267.933C87.1855 267.999 86.8775 268.109 86.5695 268.263C86.2835 268.395 86.0085 268.626 85.7445 268.956C85.4805 269.286 85.2165 269.759 84.9525 270.375C84.7105 270.991 84.4905 271.816 84.2925 272.85L83.9955 274.5H87.6255C87.6695 274.742 87.6695 275.083 87.6255 275.523C87.5815 275.941 87.4385 276.293 87.1965 276.579H83.5665L81.5205 289.581C81.3005 291.143 80.8495 292.441 80.1675 293.475C79.4855 294.509 78.7265 295.334 77.8905 295.95C77.0765 296.588 76.2515 297.061 75.4155 297.369C74.5795 297.677 73.8975 297.886 73.3695 297.996L73.0065 296.874C73.2705 296.742 73.6005 296.522 73.9965 296.214C74.3925 295.928 74.7885 295.521 75.1845 294.993C75.5805 294.465 75.9435 293.805 76.2735 293.013C76.6255 292.243 76.8895 291.308 77.0655 290.208L79.1445 276.579ZM103.875 288.723V289.845C103.655 290.021 103.358 290.197 102.984 290.373C102.632 290.549 102.236 290.703 101.796 290.835C101.378 290.967 100.927 291.077 100.443 291.165C99.9809 291.253 99.5189 291.297 99.0569 291.297C98.2649 291.297 97.7149 291.143 97.4069 290.835C97.1209 290.505 96.9779 290.164 96.9779 289.812C96.9779 289.416 97.0219 288.866 97.1099 288.162C97.1979 287.458 97.3739 286.644 97.6379 285.72H97.5059C97.2199 286.248 96.8569 286.842 96.4169 287.502C95.9769 288.162 95.4599 288.789 94.8659 289.383C94.2719 289.955 93.5899 290.439 92.8199 290.835C92.0499 291.209 91.2029 291.396 90.2789 291.396C89.3769 291.396 88.6399 291.132 88.0679 290.604C87.5179 290.054 87.2429 289.284 87.2429 288.294C87.2429 287.81 87.3089 287.117 87.4409 286.215C87.5949 285.313 87.7709 284.334 87.9689 283.278C88.1889 282.2 88.4199 281.1 88.6619 279.978C88.9259 278.834 89.1569 277.789 89.3549 276.843L87.4079 276.414V275.292C87.7599 275.16 88.1999 275.028 88.7279 274.896C89.2559 274.764 89.8059 274.643 90.3779 274.533C90.9499 274.423 91.5329 274.335 92.1269 274.269C92.7209 274.181 93.2599 274.126 93.7439 274.104L94.4699 274.5C94.1179 276.15 93.7549 277.723 93.3809 279.219C93.0289 280.693 92.6989 282.255 92.3909 283.905C92.2809 284.433 92.1599 285.016 92.0279 285.654C91.9179 286.292 91.8629 286.93 91.8629 287.568C91.8629 287.964 91.9619 288.261 92.1599 288.459C92.3799 288.657 92.6439 288.756 92.9519 288.756C93.5019 288.756 94.0409 288.547 94.5689 288.129C95.1189 287.689 95.6139 287.172 96.0539 286.578C96.5159 285.962 96.9119 285.335 97.2419 284.697C97.5939 284.059 97.8469 283.531 98.0009 283.113L99.7169 274.5H104.172L101.565 288.723H103.875ZM106.646 275.292C107.064 275.028 107.526 274.808 108.032 274.632C108.538 274.434 109.033 274.28 109.517 274.17L110.045 271.662C110.199 271.53 110.441 271.409 110.771 271.299C111.101 271.167 111.464 271.057 111.86 270.969C112.256 270.859 112.652 270.76 113.048 270.672C113.466 270.584 113.84 270.518 114.17 270.474L114.863 270.87L114.071 274.5H117.932C117.976 274.764 117.954 275.116 117.866 275.556C117.8 275.974 117.679 276.315 117.503 276.579H113.642L111.728 285.126C111.64 285.544 111.574 285.918 111.53 286.248C111.486 286.556 111.464 286.842 111.464 287.106C111.464 287.678 111.607 288.096 111.893 288.36C112.179 288.624 112.564 288.756 113.048 288.756C113.598 288.756 114.115 288.69 114.599 288.558C115.083 288.426 115.545 288.239 115.985 287.997L116.414 288.855C116.15 289.141 115.798 289.438 115.358 289.746C114.918 290.032 114.423 290.307 113.873 290.571C113.323 290.813 112.729 291.011 112.091 291.165C111.453 291.319 110.804 291.396 110.144 291.396C109 291.396 108.142 291.132 107.57 290.604C106.998 290.076 106.712 289.35 106.712 288.426C106.712 287.92 106.756 287.381 106.844 286.809C106.932 286.237 107.02 285.753 107.108 285.357L109.022 276.579H106.646V275.292ZM135.296 288.723V289.845C135.076 290.021 134.779 290.197 134.405 290.373C134.053 290.549 133.657 290.703 133.217 290.835C132.799 290.967 132.348 291.077 131.864 291.165C131.402 291.253 130.94 291.297 130.478 291.297C129.686 291.297 129.136 291.143 128.828 290.835C128.542 290.505 128.399 290.164 128.399 289.812C128.399 289.416 128.443 288.866 128.531 288.162C128.619 287.458 128.795 286.644 129.059 285.72H128.927C128.641 286.248 128.278 286.842 127.838 287.502C127.398 288.162 126.881 288.789 126.287 289.383C125.693 289.955 125.011 290.439 124.241 290.835C123.471 291.209 122.624 291.396 121.7 291.396C120.798 291.396 120.061 291.132 119.489 290.604C118.939 290.054 118.664 289.284 118.664 288.294C118.664 287.81 118.73 287.117 118.862 286.215C119.016 285.313 119.192 284.334 119.39 283.278C119.61 282.2 119.841 281.1 120.083 279.978C120.347 278.834 120.578 277.789 120.776 276.843L118.829 276.414V275.292C119.181 275.16 119.621 275.028 120.149 274.896C120.677 274.764 121.227 274.643 121.799 274.533C122.371 274.423 122.954 274.335 123.548 274.269C124.142 274.181 124.681 274.126 125.165 274.104L125.891 274.5C125.539 276.15 125.176 277.723 124.802 279.219C124.45 280.693 124.12 282.255 123.812 283.905C123.702 284.433 123.581 285.016 123.449 285.654C123.339 286.292 123.284 286.93 123.284 287.568C123.284 287.964 123.383 288.261 123.581 288.459C123.801 288.657 124.065 288.756 124.373 288.756C124.923 288.756 125.462 288.547 125.99 288.129C126.54 287.689 127.035 287.172 127.475 286.578C127.937 285.962 128.333 285.335 128.663 284.697C129.015 284.059 129.268 283.531 129.422 283.113L131.138 274.5H135.593L132.986 288.723H135.296ZM146.944 277.635C146.526 277.811 146.053 278.207 145.525 278.823C145.019 279.439 144.59 280.22 144.238 281.166L142.126 291H137.506L140.443 276.843L138.562 276.414V275.292C138.936 275.116 139.365 274.962 139.849 274.83C140.355 274.676 140.883 274.555 141.433 274.467C142.005 274.357 142.588 274.28 143.182 274.236C143.776 274.17 144.348 274.126 144.898 274.104L145.558 274.5L144.7 278.592H144.832C145.492 277.316 146.251 276.249 147.109 275.391C147.967 274.533 148.968 274.104 150.112 274.104C150.42 274.104 150.728 274.137 151.036 274.203C151.344 274.247 151.63 274.346 151.894 274.5C151.938 274.962 151.894 275.468 151.762 276.018C151.652 276.546 151.498 277.052 151.3 277.536C151.102 278.02 150.871 278.449 150.607 278.823C150.343 279.197 150.09 279.45 149.848 279.582L146.944 277.635ZM165.079 287.403C164.837 287.843 164.485 288.305 164.023 288.789C163.561 289.251 163.022 289.68 162.406 290.076C161.79 290.45 161.108 290.758 160.36 291C159.612 291.264 158.831 291.396 158.017 291.396C156.059 291.396 154.53 290.868 153.43 289.812C152.352 288.734 151.813 287.216 151.813 285.258C151.813 283.74 152.055 282.31 152.539 280.968C153.023 279.626 153.694 278.449 154.552 277.437C155.432 276.403 156.466 275.589 157.654 274.995C158.864 274.401 160.184 274.104 161.614 274.104C162.934 274.104 164.023 274.412 164.881 275.028C165.739 275.622 166.168 276.447 166.168 277.503C166.168 278.999 165.42 280.231 163.924 281.199C162.45 282.167 160.052 282.772 156.73 283.014C156.664 283.322 156.609 283.641 156.565 283.971C156.543 284.279 156.532 284.576 156.532 284.862C156.532 286.116 156.851 287.084 157.489 287.766C158.127 288.426 158.941 288.756 159.931 288.756C160.349 288.756 160.767 288.69 161.185 288.558C161.603 288.426 161.999 288.25 162.373 288.03C162.769 287.81 163.121 287.579 163.429 287.337C163.759 287.073 164.045 286.82 164.287 286.578L165.079 287.403ZM160.855 275.985C160.107 275.985 159.381 276.392 158.677 277.206C157.995 278.02 157.423 279.395 156.961 281.331C158.589 281.287 159.898 280.924 160.888 280.242C161.9 279.56 162.406 278.669 162.406 277.569C162.406 277.129 162.285 276.755 162.043 276.447C161.823 276.139 161.427 275.985 160.855 275.985ZM180.167 268.923L177.989 268.494V267.438C178.407 267.284 178.924 267.141 179.54 267.009C180.156 266.855 180.772 266.723 181.388 266.613C182.026 266.503 182.631 266.415 183.203 266.349C183.797 266.261 184.27 266.206 184.622 266.184L185.315 266.547L182.774 279.054H182.939C183.291 278.394 183.687 277.767 184.127 277.173C184.567 276.579 185.04 276.051 185.546 275.589C186.074 275.127 186.624 274.764 187.196 274.5C187.768 274.236 188.384 274.104 189.044 274.104C189.616 274.104 190.144 274.214 190.628 274.434C191.134 274.632 191.563 274.951 191.915 275.391C192.289 275.809 192.575 276.359 192.773 277.041C192.993 277.701 193.103 278.493 193.103 279.417C193.103 281.045 192.883 282.585 192.443 284.037C192.003 285.467 191.343 286.732 190.463 287.832C189.605 288.932 188.527 289.801 187.229 290.439C185.953 291.077 184.479 291.396 182.807 291.396C182.103 291.396 181.41 291.352 180.728 291.264C180.068 291.176 179.441 291.055 178.847 290.901C178.275 290.747 177.758 290.56 177.296 290.34C176.834 290.12 176.46 289.889 176.174 289.647L180.167 268.923ZM186.635 276.744C186.173 276.744 185.722 276.931 185.282 277.305C184.864 277.679 184.468 278.13 184.094 278.658C183.742 279.186 183.423 279.736 183.137 280.308C182.851 280.88 182.62 281.364 182.444 281.76L181.025 288.855C181.267 289.075 181.575 289.24 181.949 289.35C182.323 289.46 182.697 289.515 183.071 289.515C183.819 289.515 184.512 289.24 185.15 288.69C185.81 288.14 186.382 287.414 186.866 286.512C187.35 285.61 187.724 284.576 187.988 283.41C188.274 282.222 188.417 281.001 188.417 279.747C188.417 278.823 188.274 278.097 187.988 277.569C187.702 277.019 187.251 276.744 186.635 276.744ZM208.199 287.403C207.957 287.843 207.605 288.305 207.143 288.789C206.681 289.251 206.142 289.68 205.526 290.076C204.91 290.45 204.228 290.758 203.48 291C202.732 291.264 201.951 291.396 201.137 291.396C199.179 291.396 197.65 290.868 196.55 289.812C195.472 288.734 194.933 287.216 194.933 285.258C194.933 283.74 195.175 282.31 195.659 280.968C196.143 279.626 196.814 278.449 197.672 277.437C198.552 276.403 199.586 275.589 200.774 274.995C201.984 274.401 203.304 274.104 204.734 274.104C206.054 274.104 207.143 274.412 208.001 275.028C208.859 275.622 209.288 276.447 209.288 277.503C209.288 278.999 208.54 280.231 207.044 281.199C205.57 282.167 203.172 282.772 199.85 283.014C199.784 283.322 199.729 283.641 199.685 283.971C199.663 284.279 199.652 284.576 199.652 284.862C199.652 286.116 199.971 287.084 200.609 287.766C201.247 288.426 202.061 288.756 203.051 288.756C203.469 288.756 203.887 288.69 204.305 288.558C204.723 288.426 205.119 288.25 205.493 288.03C205.889 287.81 206.241 287.579 206.549 287.337C206.879 287.073 207.165 286.82 207.407 286.578L208.199 287.403ZM203.975 275.985C203.227 275.985 202.501 276.392 201.797 277.206C201.115 278.02 200.543 279.395 200.081 281.331C201.709 281.287 203.018 280.924 204.008 280.242C205.02 279.56 205.526 278.669 205.526 277.569C205.526 277.129 205.405 276.755 205.163 276.447C204.943 276.139 204.547 275.985 203.975 275.985ZM214.656 268.923L212.412 268.494V267.372C212.72 267.24 213.138 267.108 213.666 266.976C214.194 266.844 214.766 266.723 215.382 266.613C215.998 266.481 216.625 266.382 217.263 266.316C217.923 266.228 218.528 266.184 219.078 266.184L219.738 266.547L215.415 288.723H217.758V289.845C217.538 290.021 217.241 290.197 216.867 290.373C216.493 290.549 216.075 290.703 215.613 290.835C215.173 290.967 214.711 291.077 214.227 291.165C213.743 291.253 213.281 291.297 212.841 291.297C212.093 291.297 211.543 291.143 211.191 290.835C210.861 290.505 210.696 290.153 210.696 289.779C210.696 289.339 210.729 288.91 210.795 288.492C210.861 288.074 210.949 287.612 211.059 287.106L214.656 268.923ZM220.425 284.664C220.425 283.476 220.623 282.266 221.019 281.034C221.415 279.78 222.02 278.647 222.834 277.635C223.648 276.601 224.671 275.754 225.903 275.094C227.157 274.434 228.62 274.104 230.292 274.104C232.272 274.104 233.823 274.643 234.945 275.721C236.067 276.799 236.628 278.405 236.628 280.539C236.628 281.991 236.408 283.377 235.968 284.697C235.528 285.995 234.89 287.15 234.054 288.162C233.218 289.152 232.195 289.944 230.985 290.538C229.797 291.11 228.433 291.396 226.893 291.396C225.969 291.396 225.111 291.264 224.319 291C223.527 290.714 222.834 290.296 222.24 289.746C221.668 289.174 221.217 288.47 220.887 287.634C220.579 286.798 220.425 285.808 220.425 284.664ZM229.731 275.985C228.851 275.985 228.114 276.315 227.52 276.975C226.948 277.635 226.475 278.471 226.101 279.483C225.749 280.473 225.496 281.551 225.342 282.717C225.188 283.883 225.111 284.961 225.111 285.951C225.111 287.073 225.32 287.953 225.738 288.591C226.178 289.207 226.772 289.515 227.52 289.515C228.158 289.515 228.741 289.251 229.269 288.723C229.819 288.173 230.292 287.447 230.688 286.545C231.084 285.621 231.392 284.576 231.612 283.41C231.832 282.222 231.942 280.99 231.942 279.714C231.942 278.504 231.744 277.58 231.348 276.942C230.974 276.304 230.435 275.985 229.731 275.985ZM250.252 281.595C250.406 280.913 250.538 280.308 250.648 279.78C250.78 279.252 250.846 278.702 250.846 278.13C250.846 277.756 250.758 277.437 250.582 277.173C250.428 276.887 250.142 276.744 249.724 276.744C249.306 276.744 248.866 276.909 248.404 277.239C247.964 277.547 247.524 277.943 247.084 278.427C246.666 278.889 246.27 279.406 245.896 279.978C245.544 280.55 245.258 281.078 245.038 281.562L243.058 291H238.504L241.342 276.843L239.395 276.414L239.461 275.292C239.769 275.138 240.165 274.995 240.649 274.863C241.133 274.709 241.661 274.577 242.233 274.467C242.805 274.357 243.388 274.269 243.982 274.203C244.598 274.137 245.181 274.104 245.731 274.104L246.391 274.5L245.368 279.318H245.533C245.929 278.592 246.391 277.91 246.919 277.272C247.447 276.634 248.008 276.084 248.602 275.622C249.196 275.16 249.823 274.797 250.483 274.533C251.143 274.247 251.814 274.104 252.496 274.104C253.42 274.104 254.146 274.401 254.674 274.995C255.202 275.589 255.466 276.381 255.466 277.371C255.466 277.877 255.411 278.46 255.301 279.12C255.191 279.758 255.059 280.396 254.905 281.034L253.09 288.723H255.466V289.845C255.246 290.021 254.949 290.197 254.575 290.373C254.223 290.549 253.827 290.703 253.387 290.835C252.969 290.967 252.529 291.077 252.067 291.165C251.605 291.253 251.165 291.297 250.747 291.297C249.999 291.297 249.449 291.154 249.097 290.868C248.767 290.582 248.602 290.252 248.602 289.878C248.602 289.416 248.657 288.921 248.767 288.393C248.877 287.865 248.987 287.359 249.097 286.875L250.252 281.595ZM266.682 274.104C267.936 274.104 268.959 274.247 269.751 274.533C270.565 274.819 271.159 275.116 271.533 275.424C271.753 275.226 272.05 275.028 272.424 274.83C272.798 274.61 273.194 274.412 273.612 274.236C274.052 274.038 274.481 273.862 274.899 273.708C275.339 273.554 275.735 273.422 276.087 273.312C276.197 273.51 276.263 273.774 276.285 274.104C276.329 274.434 276.329 274.775 276.285 275.127C276.263 275.457 276.197 275.776 276.087 276.084C275.977 276.392 275.834 276.645 275.658 276.843L272.391 276.48C272.501 276.656 272.589 276.887 272.655 277.173C272.743 277.459 272.787 277.778 272.787 278.13C272.787 278.922 272.6 279.681 272.226 280.407C271.852 281.111 271.302 281.727 270.576 282.255C269.872 282.783 269.014 283.212 268.002 283.542C267.012 283.85 265.89 284.004 264.636 284.004C264.262 284.004 263.954 284.004 263.712 284.004C263.492 283.982 263.239 283.938 262.953 283.872C262.843 283.96 262.711 284.059 262.557 284.169C262.425 284.257 262.282 284.356 262.128 284.466C261.996 284.576 261.875 284.708 261.765 284.862C261.677 284.994 261.633 285.148 261.633 285.324C261.633 285.654 261.908 285.907 262.458 286.083C263.008 286.259 263.69 286.413 264.504 286.545C265.318 286.677 266.209 286.831 267.177 287.007C268.145 287.183 269.036 287.436 269.85 287.766C270.664 288.096 271.346 288.547 271.896 289.119C272.446 289.669 272.721 290.406 272.721 291.33C272.721 292.342 272.391 293.255 271.731 294.069C271.093 294.883 270.246 295.576 269.19 296.148C268.156 296.742 266.979 297.193 265.659 297.501C264.361 297.831 263.041 297.996 261.699 297.996C260.599 297.996 259.631 297.886 258.795 297.666C257.959 297.468 257.266 297.182 256.716 296.808C256.144 296.456 255.726 296.049 255.462 295.587C255.176 295.125 255.033 294.641 255.033 294.135C255.033 292.991 255.528 292.023 256.518 291.231C257.508 290.461 258.762 289.823 260.28 289.317C259.708 289.075 259.246 288.789 258.894 288.459C258.564 288.107 258.399 287.667 258.399 287.139C258.399 286.809 258.498 286.468 258.696 286.116C258.894 285.764 259.147 285.423 259.455 285.093C259.763 284.763 260.104 284.466 260.478 284.202C260.852 283.916 261.226 283.685 261.6 283.509C261.27 283.443 260.918 283.311 260.544 283.113C260.192 282.915 259.862 282.673 259.554 282.387C259.268 282.079 259.026 281.727 258.828 281.331C258.63 280.913 258.531 280.473 258.531 280.011C258.531 279.153 258.718 278.361 259.092 277.635C259.466 276.909 260.005 276.293 260.709 275.787C261.413 275.259 262.26 274.852 263.25 274.566C264.262 274.258 265.406 274.104 266.682 274.104ZM263.25 296.115C263.844 296.115 264.416 296.038 264.966 295.884C265.538 295.752 266.044 295.543 266.484 295.257C266.924 294.993 267.276 294.652 267.54 294.234C267.826 293.816 267.969 293.321 267.969 292.749C267.969 292.221 267.749 291.792 267.309 291.462C266.891 291.154 266.352 290.901 265.692 290.703C265.032 290.483 264.306 290.307 263.514 290.175C262.744 290.043 262.007 289.889 261.303 289.713C260.687 290.175 260.225 290.725 259.917 291.363C259.609 292.001 259.455 292.639 259.455 293.277C259.455 294.157 259.796 294.85 260.478 295.356C261.16 295.862 262.084 296.115 263.25 296.115ZM266.286 275.919C265.758 275.919 265.296 276.029 264.9 276.249C264.504 276.469 264.174 276.766 263.91 277.14C263.646 277.514 263.448 277.954 263.316 278.46C263.184 278.966 263.118 279.505 263.118 280.077C263.118 280.847 263.305 281.397 263.679 281.727C264.075 282.035 264.493 282.189 264.933 282.189C265.461 282.189 265.923 282.079 266.319 281.859C266.715 281.639 267.045 281.353 267.309 281.001C267.573 280.627 267.771 280.198 267.903 279.714C268.035 279.23 268.101 278.713 268.101 278.163C268.101 277.503 267.947 276.964 267.639 276.546C267.331 276.128 266.88 275.919 266.286 275.919ZM281.682 287.37C281.682 286.886 281.55 286.457 281.286 286.083C281.022 285.687 280.692 285.302 280.296 284.928C279.9 284.554 279.46 284.191 278.976 283.839C278.514 283.465 278.085 283.047 277.689 282.585C277.293 282.123 276.963 281.617 276.699 281.067C276.435 280.495 276.303 279.835 276.303 279.087C276.303 277.415 276.897 276.172 278.085 275.358C279.295 274.522 280.934 274.104 283.002 274.104C283.354 274.104 283.739 274.126 284.157 274.17C284.597 274.192 285.037 274.247 285.477 274.335C285.917 274.423 286.335 274.533 286.731 274.665C287.149 274.775 287.523 274.929 287.853 275.127C287.875 275.369 287.853 275.688 287.787 276.084C287.743 276.458 287.644 276.843 287.49 277.239C287.358 277.613 287.171 277.965 286.929 278.295C286.709 278.603 286.434 278.812 286.104 278.922L283.464 275.985C282.76 275.985 282.166 276.128 281.682 276.414C281.22 276.7 280.989 277.206 280.989 277.932C280.989 278.416 281.121 278.856 281.385 279.252C281.671 279.648 282.012 280.033 282.408 280.407C282.804 280.759 283.244 281.122 283.728 281.496C284.212 281.87 284.652 282.288 285.048 282.75C285.444 283.19 285.774 283.696 286.038 284.268C286.324 284.84 286.467 285.5 286.467 286.248C286.467 287.084 286.28 287.821 285.906 288.459C285.532 289.097 285.015 289.636 284.355 290.076C283.717 290.516 282.947 290.846 282.045 291.066C281.143 291.286 280.164 291.396 279.108 291.396C277.986 291.396 276.974 291.264 276.072 291C275.192 290.758 274.532 290.483 274.092 290.175C274.07 289.471 274.191 288.778 274.455 288.096C274.741 287.414 275.148 286.886 275.676 286.512L278.877 289.515C279.603 289.515 280.252 289.339 280.824 288.987C281.396 288.635 281.682 288.096 281.682 287.37ZM298.748 275.292C299.166 275.028 299.628 274.808 300.134 274.632C300.64 274.434 301.135 274.28 301.619 274.17L302.147 271.662C302.301 271.53 302.543 271.409 302.873 271.299C303.203 271.167 303.566 271.057 303.962 270.969C304.358 270.859 304.754 270.76 305.15 270.672C305.568 270.584 305.942 270.518 306.272 270.474L306.965 270.87L306.173 274.5H310.034C310.078 274.764 310.056 275.116 309.968 275.556C309.902 275.974 309.781 276.315 309.605 276.579H305.744L303.83 285.126C303.742 285.544 303.676 285.918 303.632 286.248C303.588 286.556 303.566 286.842 303.566 287.106C303.566 287.678 303.709 288.096 303.995 288.36C304.281 288.624 304.666 288.756 305.15 288.756C305.7 288.756 306.217 288.69 306.701 288.558C307.185 288.426 307.647 288.239 308.087 287.997L308.516 288.855C308.252 289.141 307.9 289.438 307.46 289.746C307.02 290.032 306.525 290.307 305.975 290.571C305.425 290.813 304.831 291.011 304.193 291.165C303.555 291.319 302.906 291.396 302.246 291.396C301.102 291.396 300.244 291.132 299.672 290.604C299.1 290.076 298.814 289.35 298.814 288.426C298.814 287.92 298.858 287.381 298.946 286.809C299.034 286.237 299.122 285.753 299.21 285.357L301.124 276.579H298.748V275.292ZM310.337 284.664C310.337 283.476 310.535 282.266 310.931 281.034C311.327 279.78 311.932 278.647 312.746 277.635C313.56 276.601 314.583 275.754 315.815 275.094C317.069 274.434 318.532 274.104 320.204 274.104C322.184 274.104 323.735 274.643 324.857 275.721C325.979 276.799 326.54 278.405 326.54 280.539C326.54 281.991 326.32 283.377 325.88 284.697C325.44 285.995 324.802 287.15 323.966 288.162C323.13 289.152 322.107 289.944 320.897 290.538C319.709 291.11 318.345 291.396 316.805 291.396C315.881 291.396 315.023 291.264 314.231 291C313.439 290.714 312.746 290.296 312.152 289.746C311.58 289.174 311.129 288.47 310.799 287.634C310.491 286.798 310.337 285.808 310.337 284.664ZM319.643 275.985C318.763 275.985 318.026 276.315 317.432 276.975C316.86 277.635 316.387 278.471 316.013 279.483C315.661 280.473 315.408 281.551 315.254 282.717C315.1 283.883 315.023 284.961 315.023 285.951C315.023 287.073 315.232 287.953 315.65 288.591C316.09 289.207 316.684 289.515 317.432 289.515C318.07 289.515 318.653 289.251 319.181 288.723C319.731 288.173 320.204 287.447 320.6 286.545C320.996 285.621 321.304 284.576 321.524 283.41C321.744 282.222 321.854 280.99 321.854 279.714C321.854 278.504 321.656 277.58 321.26 276.942C320.886 276.304 320.347 275.985 319.643 275.985ZM337.871 275.292C338.289 275.028 338.751 274.808 339.257 274.632C339.763 274.434 340.258 274.28 340.742 274.17L341.27 271.662C341.424 271.53 341.666 271.409 341.996 271.299C342.326 271.167 342.689 271.057 343.085 270.969C343.481 270.859 343.877 270.76 344.273 270.672C344.691 270.584 345.065 270.518 345.395 270.474L346.088 270.87L345.296 274.5H349.157C349.201 274.764 349.179 275.116 349.091 275.556C349.025 275.974 348.904 276.315 348.728 276.579H344.867L342.953 285.126C342.865 285.544 342.799 285.918 342.755 286.248C342.711 286.556 342.689 286.842 342.689 287.106C342.689 287.678 342.832 288.096 343.118 288.36C343.404 288.624 343.789 288.756 344.273 288.756C344.823 288.756 345.34 288.69 345.824 288.558C346.308 288.426 346.77 288.239 347.21 287.997L347.639 288.855C347.375 289.141 347.023 289.438 346.583 289.746C346.143 290.032 345.648 290.307 345.098 290.571C344.548 290.813 343.954 291.011 343.316 291.165C342.678 291.319 342.029 291.396 341.369 291.396C340.225 291.396 339.367 291.132 338.795 290.604C338.223 290.076 337.937 289.35 337.937 288.426C337.937 287.92 337.981 287.381 338.069 286.809C338.157 286.237 338.245 285.753 338.333 285.357L340.247 276.579H337.871V275.292ZM362.66 287.403C362.418 287.843 362.066 288.305 361.604 288.789C361.142 289.251 360.603 289.68 359.987 290.076C359.371 290.45 358.689 290.758 357.941 291C357.193 291.264 356.412 291.396 355.598 291.396C353.64 291.396 352.111 290.868 351.011 289.812C349.933 288.734 349.394 287.216 349.394 285.258C349.394 283.74 349.636 282.31 350.12 280.968C350.604 279.626 351.275 278.449 352.133 277.437C353.013 276.403 354.047 275.589 355.235 274.995C356.445 274.401 357.765 274.104 359.195 274.104C360.515 274.104 361.604 274.412 362.462 275.028C363.32 275.622 363.749 276.447 363.749 277.503C363.749 278.999 363.001 280.231 361.505 281.199C360.031 282.167 357.633 282.772 354.311 283.014C354.245 283.322 354.19 283.641 354.146 283.971C354.124 284.279 354.113 284.576 354.113 284.862C354.113 286.116 354.432 287.084 355.07 287.766C355.708 288.426 356.522 288.756 357.512 288.756C357.93 288.756 358.348 288.69 358.766 288.558C359.184 288.426 359.58 288.25 359.954 288.03C360.35 287.81 360.702 287.579 361.01 287.337C361.34 287.073 361.626 286.82 361.868 286.578L362.66 287.403ZM358.436 275.985C357.688 275.985 356.962 276.392 356.258 277.206C355.576 278.02 355.004 279.395 354.542 281.331C356.17 281.287 357.479 280.924 358.469 280.242C359.481 279.56 359.987 278.669 359.987 277.569C359.987 277.129 359.866 276.755 359.624 276.447C359.404 276.139 359.008 275.985 358.436 275.985ZM377.665 287.403C377.379 287.865 377.005 288.338 376.543 288.822C376.081 289.306 375.542 289.735 374.926 290.109C374.332 290.483 373.672 290.791 372.946 291.033C372.22 291.275 371.45 291.396 370.636 291.396C368.898 291.396 367.512 290.879 366.478 289.845C365.466 288.811 364.96 287.37 364.96 285.522C364.96 283.982 365.191 282.519 365.653 281.133C366.137 279.747 366.808 278.537 367.666 277.503C368.524 276.447 369.558 275.622 370.768 275.028C372 274.412 373.364 274.104 374.86 274.104C375.85 274.104 376.708 274.214 377.434 274.434C378.182 274.632 378.677 274.874 378.919 275.16C378.941 275.402 378.897 275.71 378.787 276.084C378.699 276.436 378.556 276.799 378.358 277.173C378.16 277.525 377.918 277.866 377.632 278.196C377.368 278.504 377.093 278.724 376.807 278.856L374.794 275.985C374.2 275.985 373.595 276.194 372.979 276.612C372.385 277.008 371.846 277.591 371.362 278.361C370.878 279.109 370.482 280.022 370.174 281.1C369.866 282.156 369.712 283.355 369.712 284.697C369.712 286.039 369.987 287.029 370.537 287.667C371.087 288.283 371.824 288.591 372.748 288.591C373.188 288.591 373.606 288.525 374.002 288.393C374.42 288.239 374.805 288.063 375.157 287.865C375.509 287.667 375.828 287.458 376.114 287.238C376.422 286.996 376.686 286.776 376.906 286.578L377.665 287.403ZM381.734 268.494V267.438C382.064 267.306 382.482 267.174 382.988 267.042C383.516 266.888 384.077 266.756 384.671 266.646C385.287 266.514 385.914 266.404 386.552 266.316C387.19 266.228 387.795 266.184 388.367 266.184L389.06 266.481L386.288 279.318H386.453C386.871 278.614 387.333 277.943 387.839 277.305C388.367 276.667 388.917 276.117 389.489 275.655C390.061 275.171 390.666 274.797 391.304 274.533C391.942 274.247 392.591 274.104 393.251 274.104C394.263 274.104 395.044 274.401 395.594 274.995C396.144 275.567 396.419 276.282 396.419 277.14C396.419 277.734 396.364 278.372 396.254 279.054C396.144 279.736 396.012 280.396 395.858 281.034L393.977 288.723H396.419V289.845C395.979 290.197 395.33 290.527 394.472 290.835C393.636 291.143 392.679 291.297 391.601 291.297C390.875 291.297 390.347 291.154 390.017 290.868C389.687 290.56 389.522 290.197 389.522 289.779C389.522 289.383 389.566 288.976 389.654 288.558C389.764 288.14 389.874 287.656 389.984 287.106L391.205 281.595C391.359 280.913 391.491 280.297 391.601 279.747C391.733 279.175 391.799 278.636 391.799 278.13C391.799 277.734 391.711 277.404 391.535 277.14C391.381 276.876 391.139 276.744 390.809 276.744C390.303 276.744 389.797 276.931 389.291 277.305C388.785 277.657 388.312 278.086 387.872 278.592C387.432 279.098 387.036 279.626 386.684 280.176C386.354 280.726 386.112 281.188 385.958 281.562L384.011 291H379.457L383.912 268.923L381.734 268.494ZM410.611 281.595C410.765 280.913 410.897 280.308 411.007 279.78C411.139 279.252 411.205 278.702 411.205 278.13C411.205 277.756 411.117 277.437 410.941 277.173C410.787 276.887 410.501 276.744 410.083 276.744C409.665 276.744 409.225 276.909 408.763 277.239C408.323 277.547 407.883 277.943 407.443 278.427C407.025 278.889 406.629 279.406 406.255 279.978C405.903 280.55 405.617 281.078 405.397 281.562L403.417 291H398.863L401.701 276.843L399.754 276.414L399.82 275.292C400.128 275.138 400.524 274.995 401.008 274.863C401.492 274.709 402.02 274.577 402.592 274.467C403.164 274.357 403.747 274.269 404.341 274.203C404.957 274.137 405.54 274.104 406.09 274.104L406.75 274.5L405.727 279.318H405.892C406.288 278.592 406.75 277.91 407.278 277.272C407.806 276.634 408.367 276.084 408.961 275.622C409.555 275.16 410.182 274.797 410.842 274.533C411.502 274.247 412.173 274.104 412.855 274.104C413.779 274.104 414.505 274.401 415.033 274.995C415.561 275.589 415.825 276.381 415.825 277.371C415.825 277.877 415.77 278.46 415.66 279.12C415.55 279.758 415.418 280.396 415.264 281.034L413.449 288.723H415.825V289.845C415.605 290.021 415.308 290.197 414.934 290.373C414.582 290.549 414.186 290.703 413.746 290.835C413.328 290.967 412.888 291.077 412.426 291.165C411.964 291.253 411.524 291.297 411.106 291.297C410.358 291.297 409.808 291.154 409.456 290.868C409.126 290.582 408.961 290.252 408.961 289.878C408.961 289.416 409.016 288.921 409.126 288.393C409.236 287.865 409.346 287.359 409.456 286.875L410.611 281.595ZM418.296 284.664C418.296 283.476 418.494 282.266 418.89 281.034C419.286 279.78 419.891 278.647 420.705 277.635C421.519 276.601 422.542 275.754 423.774 275.094C425.028 274.434 426.491 274.104 428.163 274.104C430.143 274.104 431.694 274.643 432.816 275.721C433.938 276.799 434.499 278.405 434.499 280.539C434.499 281.991 434.279 283.377 433.839 284.697C433.399 285.995 432.761 287.15 431.925 288.162C431.089 289.152 430.066 289.944 428.856 290.538C427.668 291.11 426.304 291.396 424.764 291.396C423.84 291.396 422.982 291.264 422.19 291C421.398 290.714 420.705 290.296 420.111 289.746C419.539 289.174 419.088 288.47 418.758 287.634C418.45 286.798 418.296 285.808 418.296 284.664ZM427.602 275.985C426.722 275.985 425.985 276.315 425.391 276.975C424.819 277.635 424.346 278.471 423.972 279.483C423.62 280.473 423.367 281.551 423.213 282.717C423.059 283.883 422.982 284.961 422.982 285.951C422.982 287.073 423.191 287.953 423.609 288.591C424.049 289.207 424.643 289.515 425.391 289.515C426.029 289.515 426.612 289.251 427.14 288.723C427.69 288.173 428.163 287.447 428.559 286.545C428.955 285.621 429.263 284.576 429.483 283.41C429.703 282.222 429.813 280.99 429.813 279.714C429.813 278.504 429.615 277.58 429.219 276.942C428.845 276.304 428.306 275.985 427.602 275.985ZM440.5 268.923L438.256 268.494V267.372C438.564 267.24 438.982 267.108 439.51 266.976C440.038 266.844 440.61 266.723 441.226 266.613C441.842 266.481 442.469 266.382 443.107 266.316C443.767 266.228 444.372 266.184 444.922 266.184L445.582 266.547L441.259 288.723H443.602V289.845C443.382 290.021 443.085 290.197 442.711 290.373C442.337 290.549 441.919 290.703 441.457 290.835C441.017 290.967 440.555 291.077 440.071 291.165C439.587 291.253 439.125 291.297 438.685 291.297C437.937 291.297 437.387 291.143 437.035 290.835C436.705 290.505 436.54 290.153 436.54 289.779C436.54 289.339 436.573 288.91 436.639 288.492C436.705 288.074 436.793 287.612 436.903 287.106L440.5 268.923ZM446.269 284.664C446.269 283.476 446.467 282.266 446.863 281.034C447.259 279.78 447.864 278.647 448.678 277.635C449.492 276.601 450.515 275.754 451.747 275.094C453.001 274.434 454.464 274.104 456.136 274.104C458.116 274.104 459.667 274.643 460.789 275.721C461.911 276.799 462.472 278.405 462.472 280.539C462.472 281.991 462.252 283.377 461.812 284.697C461.372 285.995 460.734 287.15 459.898 288.162C459.062 289.152 458.039 289.944 456.829 290.538C455.641 291.11 454.277 291.396 452.737 291.396C451.813 291.396 450.955 291.264 450.163 291C449.371 290.714 448.678 290.296 448.084 289.746C447.512 289.174 447.061 288.47 446.731 287.634C446.423 286.798 446.269 285.808 446.269 284.664ZM455.575 275.985C454.695 275.985 453.958 276.315 453.364 276.975C452.792 277.635 452.319 278.471 451.945 279.483C451.593 280.473 451.34 281.551 451.186 282.717C451.032 283.883 450.955 284.961 450.955 285.951C450.955 287.073 451.164 287.953 451.582 288.591C452.022 289.207 452.616 289.515 453.364 289.515C454.002 289.515 454.585 289.251 455.113 288.723C455.663 288.173 456.136 287.447 456.532 286.545C456.928 285.621 457.236 284.576 457.456 283.41C457.676 282.222 457.786 280.99 457.786 279.714C457.786 278.504 457.588 277.58 457.192 276.942C456.818 276.304 456.279 275.985 455.575 275.985ZM473.125 274.104C474.379 274.104 475.402 274.247 476.194 274.533C477.008 274.819 477.602 275.116 477.976 275.424C478.196 275.226 478.493 275.028 478.867 274.83C479.241 274.61 479.637 274.412 480.055 274.236C480.495 274.038 480.924 273.862 481.342 273.708C481.782 273.554 482.178 273.422 482.53 273.312C482.64 273.51 482.706 273.774 482.728 274.104C482.772 274.434 482.772 274.775 482.728 275.127C482.706 275.457 482.64 275.776 482.53 276.084C482.42 276.392 482.277 276.645 482.101 276.843L478.834 276.48C478.944 276.656 479.032 276.887 479.098 277.173C479.186 277.459 479.23 277.778 479.23 278.13C479.23 278.922 479.043 279.681 478.669 280.407C478.295 281.111 477.745 281.727 477.019 282.255C476.315 282.783 475.457 283.212 474.445 283.542C473.455 283.85 472.333 284.004 471.079 284.004C470.705 284.004 470.397 284.004 470.155 284.004C469.935 283.982 469.682 283.938 469.396 283.872C469.286 283.96 469.154 284.059 469 284.169C468.868 284.257 468.725 284.356 468.571 284.466C468.439 284.576 468.318 284.708 468.208 284.862C468.12 284.994 468.076 285.148 468.076 285.324C468.076 285.654 468.351 285.907 468.901 286.083C469.451 286.259 470.133 286.413 470.947 286.545C471.761 286.677 472.652 286.831 473.62 287.007C474.588 287.183 475.479 287.436 476.293 287.766C477.107 288.096 477.789 288.547 478.339 289.119C478.889 289.669 479.164 290.406 479.164 291.33C479.164 292.342 478.834 293.255 478.174 294.069C477.536 294.883 476.689 295.576 475.633 296.148C474.599 296.742 473.422 297.193 472.102 297.501C470.804 297.831 469.484 297.996 468.142 297.996C467.042 297.996 466.074 297.886 465.238 297.666C464.402 297.468 463.709 297.182 463.159 296.808C462.587 296.456 462.169 296.049 461.905 295.587C461.619 295.125 461.476 294.641 461.476 294.135C461.476 292.991 461.971 292.023 462.961 291.231C463.951 290.461 465.205 289.823 466.723 289.317C466.151 289.075 465.689 288.789 465.337 288.459C465.007 288.107 464.842 287.667 464.842 287.139C464.842 286.809 464.941 286.468 465.139 286.116C465.337 285.764 465.59 285.423 465.898 285.093C466.206 284.763 466.547 284.466 466.921 284.202C467.295 283.916 467.669 283.685 468.043 283.509C467.713 283.443 467.361 283.311 466.987 283.113C466.635 282.915 466.305 282.673 465.997 282.387C465.711 282.079 465.469 281.727 465.271 281.331C465.073 280.913 464.974 280.473 464.974 280.011C464.974 279.153 465.161 278.361 465.535 277.635C465.909 276.909 466.448 276.293 467.152 275.787C467.856 275.259 468.703 274.852 469.693 274.566C470.705 274.258 471.849 274.104 473.125 274.104ZM469.693 296.115C470.287 296.115 470.859 296.038 471.409 295.884C471.981 295.752 472.487 295.543 472.927 295.257C473.367 294.993 473.719 294.652 473.983 294.234C474.269 293.816 474.412 293.321 474.412 292.749C474.412 292.221 474.192 291.792 473.752 291.462C473.334 291.154 472.795 290.901 472.135 290.703C471.475 290.483 470.749 290.307 469.957 290.175C469.187 290.043 468.45 289.889 467.746 289.713C467.13 290.175 466.668 290.725 466.36 291.363C466.052 292.001 465.898 292.639 465.898 293.277C465.898 294.157 466.239 294.85 466.921 295.356C467.603 295.862 468.527 296.115 469.693 296.115ZM472.729 275.919C472.201 275.919 471.739 276.029 471.343 276.249C470.947 276.469 470.617 276.766 470.353 277.14C470.089 277.514 469.891 277.954 469.759 278.46C469.627 278.966 469.561 279.505 469.561 280.077C469.561 280.847 469.748 281.397 470.122 281.727C470.518 282.035 470.936 282.189 471.376 282.189C471.904 282.189 472.366 282.079 472.762 281.859C473.158 281.639 473.488 281.353 473.752 281.001C474.016 280.627 474.214 280.198 474.346 279.714C474.478 279.23 474.544 278.713 474.544 278.163C474.544 277.503 474.39 276.964 474.082 276.546C473.774 276.128 473.323 275.919 472.729 275.919ZM482.944 276.843L480.832 276.579V275.457C480.942 275.369 481.162 275.259 481.492 275.127C481.822 274.973 482.207 274.819 482.647 274.665C483.109 274.511 483.593 274.379 484.099 274.269C484.605 274.159 485.1 274.104 485.584 274.104C486.178 274.104 486.64 274.247 486.97 274.533C487.3 274.819 487.52 275.215 487.63 275.721L490.171 285.72L490.336 287.7H490.402L491.095 285.753C491.535 284.697 491.964 283.564 492.382 282.354C492.8 281.122 493.13 279.978 493.372 278.922C493.372 278.68 493.328 278.35 493.24 277.932C493.174 277.492 493.097 277.052 493.009 276.612C492.921 276.15 492.833 275.732 492.745 275.358C492.657 274.962 492.591 274.698 492.547 274.566C492.855 274.434 493.24 274.335 493.702 274.269C494.164 274.203 494.626 274.17 495.088 274.17C495.55 274.17 495.979 274.203 496.375 274.269C496.771 274.335 497.09 274.434 497.332 274.566C496.76 277.184 495.88 279.901 494.692 282.717C493.526 285.533 492.173 288.294 490.633 291C489.357 293.266 488.081 294.982 486.805 296.148C485.551 297.314 484.099 297.897 482.449 297.897C481.987 297.897 481.558 297.831 481.162 297.699C480.788 297.589 480.447 297.435 480.139 297.237C480.073 296.929 480.095 296.566 480.205 296.148C480.315 295.73 480.469 295.323 480.667 294.927C480.887 294.531 481.14 294.168 481.426 293.838C481.712 293.508 482.009 293.288 482.317 293.178L484.792 294.927C484.946 294.817 485.144 294.652 485.386 294.432C485.628 294.234 485.87 293.97 486.112 293.64C486.354 293.332 486.596 292.958 486.838 292.518C487.08 292.078 487.3 291.572 487.498 291L482.944 276.843Z" fill="white"/>
</svg>
