<svg width="488" height="82" viewBox="0 0 488 82" fill="none" xmlns="http://www.w3.org/2000/svg">
<path d="M6.25666 65C4.23933 65 2.756 64.466 1.80666 63.398C0.916664 62.2707 0.619998 60.6983 0.916664 58.681L9.19366 6.794C9.49033 5.014 10.143 3.70867 11.1517 2.878C12.1603 1.988 13.5547 1.54299 15.3347 1.54299C17.2333 1.54299 18.6277 2.10666 19.5177 3.234C20.4077 4.302 20.7043 5.815 20.4077 7.773L12.9317 55.299H37.7627C39.424 55.299 40.6997 55.655 41.5897 56.367C42.4797 57.0197 42.9247 57.969 42.9247 59.215C42.9247 61.0543 42.3907 62.4783 41.3227 63.487C40.314 64.4957 38.9197 65 37.1397 65H6.25666ZM63.5511 65.89C60.4658 65.89 57.8254 65.2373 55.6301 63.932C53.4348 62.6267 51.8624 60.6093 50.9131 57.88C50.0231 55.1507 49.9044 51.6797 50.5571 47.467L54.0281 25.929C54.3248 24.149 54.9774 22.8437 55.9861 22.013C56.9948 21.1823 58.3594 20.767 60.0801 20.767C61.9194 20.767 63.2544 21.301 64.0851 22.369C64.9751 23.3777 65.2718 24.8907 64.9751 26.908L61.7711 47.378C61.2964 50.6413 61.5338 53.074 62.4831 54.676C63.4918 56.278 65.3311 57.079 68.0011 57.079C71.3238 57.079 74.0234 55.9813 76.1001 53.786C78.1768 51.5907 79.5118 48.5943 80.1051 44.797L83.0421 25.929C83.3388 24.149 83.9914 22.8437 85.0001 22.013C86.0088 21.1823 87.3734 20.767 89.0941 20.767C90.9928 20.767 92.3574 21.301 93.1881 22.369C94.0188 23.437 94.2858 24.9797 93.9891 26.997L88.7381 60.461C88.2041 63.9617 86.1868 65.712 82.6861 65.712C80.9654 65.712 79.6898 65.2373 78.8591 64.288C78.0284 63.3387 77.7318 61.885 77.9691 59.927L78.8591 53.519L79.4821 55.922C77.9394 59.1853 75.7738 61.6773 72.9851 63.398C70.2558 65.0593 67.1111 65.89 63.5511 65.89ZM104.945 65.712C103.224 65.712 101.949 65.1483 101.118 64.021C100.347 62.8343 100.109 61.2323 100.406 59.215L105.657 26.285C105.954 24.4457 106.636 23.081 107.704 22.191C108.772 21.2417 110.226 20.767 112.065 20.767C113.786 20.767 115.032 21.3307 115.803 22.458C116.634 23.5853 116.901 25.1873 116.604 27.264L111.353 60.194C111.056 62.0333 110.374 63.4277 109.306 64.377C108.297 65.267 106.844 65.712 104.945 65.712ZM113.489 12.579C111.472 12.579 109.959 12.1043 108.95 11.155C108.001 10.1463 107.615 8.752 107.793 6.972C108.03 4.95466 108.802 3.44166 110.107 2.433C111.412 1.365 113.163 0.830999 115.358 0.830999C117.375 0.830999 118.888 1.33533 119.897 2.344C120.906 3.29333 121.291 4.658 121.054 6.438C120.817 8.45533 120.045 9.998 118.74 11.066C117.494 12.0747 115.744 12.579 113.489 12.579ZM140.001 65.89C137.212 65.89 134.483 65.5933 131.813 65C129.202 64.466 126.918 63.7243 124.96 62.775C123.832 62.241 123.031 61.5587 122.557 60.728C122.141 59.838 121.963 58.9777 122.023 58.147C122.141 57.257 122.438 56.5153 122.913 55.922C123.447 55.2693 124.129 54.854 124.96 54.676C125.85 54.498 126.829 54.676 127.897 55.21C129.795 56.1593 131.783 56.8713 133.86 57.346C135.936 57.8207 137.983 58.058 140.001 58.058C142.789 58.058 144.925 57.5537 146.409 56.545C147.892 55.477 148.634 54.0827 148.634 52.362C148.634 51.1753 148.218 50.1963 147.388 49.425C146.557 48.6537 145.341 48.1197 143.739 47.823L135.551 46.132C132.287 45.4793 129.736 44.2037 127.897 42.305C126.117 40.347 125.227 37.9143 125.227 35.007C125.227 32.337 125.968 29.934 127.452 27.798C128.994 25.6027 131.219 23.8523 134.127 22.547C137.093 21.2417 140.653 20.589 144.807 20.589C146.943 20.589 149.227 20.8857 151.66 21.479C154.152 22.013 156.288 22.814 158.068 23.882C159.076 24.4753 159.788 25.217 160.204 26.107C160.619 26.9377 160.738 27.7683 160.56 28.599C160.441 29.3703 160.115 30.0527 159.581 30.646C159.047 31.18 158.335 31.5063 157.445 31.625C156.555 31.7437 155.576 31.5063 154.508 30.913C153.024 30.0823 151.393 29.4593 149.613 29.044C147.833 28.6287 146.053 28.421 144.273 28.421C141.365 28.421 139.14 28.9847 137.598 30.112C136.055 31.18 135.284 32.604 135.284 34.384C135.284 35.452 135.61 36.3717 136.263 37.143C136.975 37.9143 138.072 38.4483 139.556 38.745L147.744 40.436C151.304 41.2073 154.003 42.5423 155.843 44.441C157.741 46.2803 158.691 48.6537 158.691 51.561C158.691 56.1297 156.97 59.66 153.529 62.152C150.147 64.644 145.637 65.89 140.001 65.89ZM192.134 65.712C190.769 65.712 189.642 65.4153 188.752 64.822C187.862 64.1693 187.328 63.3387 187.15 62.33C186.913 61.262 187.18 60.105 187.951 58.859L220.614 5.459C221.445 4.09433 222.364 3.11533 223.373 2.522C224.382 1.86933 225.628 1.54299 227.111 1.54299C228.654 1.54299 229.929 1.92866 230.938 2.7C231.947 3.47133 232.659 4.62833 233.074 6.171L248.382 58.592C248.857 60.194 248.946 61.529 248.649 62.597C248.352 63.6057 247.789 64.377 246.958 64.911C246.127 65.445 245.119 65.712 243.932 65.712C242.271 65.712 240.995 65.2967 240.105 64.466C239.274 63.6353 238.622 62.3597 238.147 60.639L234.854 48.09L238.414 50.493H201.568L206.018 48.357L197.83 62.33C197.177 63.4573 196.376 64.3177 195.427 64.911C194.537 65.445 193.439 65.712 192.134 65.712ZM225.776 14.626L208.866 43.462L206.908 41.415H236.011L233.608 43.64L225.954 14.626H225.776ZM276.084 81.91C272.524 81.91 269.142 81.4947 265.938 80.664C262.793 79.8927 260.034 78.8247 257.661 77.46C256.652 76.8667 255.97 76.125 255.614 75.235C255.258 74.4043 255.169 73.5737 255.347 72.743C255.525 71.9123 255.91 71.1707 256.504 70.518C257.097 69.9247 257.839 69.539 258.729 69.361C259.619 69.2423 260.598 69.4797 261.666 70.073C263.564 71.0817 265.582 71.8827 267.718 72.476C269.913 73.1287 272.168 73.455 274.482 73.455C278.042 73.455 280.919 72.654 283.115 71.052C285.31 69.45 286.704 66.869 287.298 63.309L288.722 54.854L289.434 54.943C288.01 57.8503 285.933 60.0753 283.204 61.618C280.474 63.1607 277.419 63.932 274.037 63.932C270.536 63.932 267.48 63.22 264.87 61.796C262.259 60.372 260.212 58.325 258.729 55.655C257.305 52.9257 256.593 49.7217 256.593 46.043C256.593 42.661 257.097 39.4273 258.106 36.342C259.174 33.2567 260.657 30.557 262.556 28.243C264.514 25.8697 266.857 24.0007 269.587 22.636C272.316 21.2713 275.372 20.589 278.754 20.589C282.195 20.589 285.191 21.39 287.743 22.992C290.353 24.594 292.163 26.9673 293.172 30.112L292.104 32.604L293.083 26.107C293.379 24.2677 294.062 22.9327 295.13 22.102C296.198 21.212 297.622 20.767 299.402 20.767C301.122 20.767 302.339 21.3307 303.051 22.458C303.822 23.5853 304.059 25.1873 303.763 27.264L298.156 62.686C297.206 68.916 294.892 73.6627 291.214 76.926C287.535 80.2487 282.492 81.91 276.084 81.91ZM277.508 55.477C280.296 55.477 282.64 54.7353 284.539 53.252C286.497 51.7093 287.98 49.692 288.989 47.2C289.997 44.6487 290.502 41.9193 290.502 39.012C290.502 35.9267 289.641 33.494 287.921 31.714C286.259 29.934 283.856 29.044 280.712 29.044C277.982 29.044 275.639 29.8153 273.681 31.358C271.782 32.8413 270.328 34.829 269.32 37.321C268.311 39.813 267.807 42.5127 267.807 45.42C267.807 48.5647 268.637 51.027 270.299 52.807C272.019 54.587 274.422 55.477 277.508 55.477ZM314.845 65.712C313.065 65.712 311.759 65.178 310.929 64.11C310.157 62.9827 309.92 61.4103 310.217 59.393L315.468 26.107C315.764 24.327 316.447 22.992 317.515 22.102C318.583 21.212 319.977 20.767 321.698 20.767C323.418 20.767 324.664 21.301 325.436 22.369C326.266 23.437 326.533 24.9797 326.237 26.997L325.436 31.981H324.546C325.732 28.4803 327.69 25.7807 330.42 23.882C333.149 21.924 336.383 20.8263 340.121 20.589C341.782 20.4703 342.88 20.7077 343.414 21.301C344.007 21.8943 344.304 22.8733 344.304 24.238C344.304 26.196 343.859 27.6497 342.969 28.599C342.079 29.489 340.684 30.023 338.786 30.201L336.205 30.468C332.229 30.8833 329.381 32.0997 327.661 34.117C325.94 36.075 324.783 38.834 324.19 42.394L321.342 60.372C321.104 62.152 320.422 63.487 319.295 64.377C318.227 65.267 316.743 65.712 314.845 65.712ZM366.09 65.89C361.699 65.89 357.872 65.089 354.609 63.487C351.405 61.8257 348.913 59.5117 347.133 56.545C345.353 53.5783 344.463 50.1073 344.463 46.132C344.463 41.2667 345.472 36.9353 347.489 33.138C349.566 29.2813 352.414 26.2257 356.033 23.971C359.652 21.7163 363.806 20.589 368.493 20.589C372.112 20.589 375.138 21.212 377.571 22.458C380.004 23.704 381.932 25.395 383.356 27.531C384.78 29.6077 385.729 31.981 386.204 34.651C386.679 37.321 386.768 40.0503 386.471 42.839C386.352 44.085 386.026 44.886 385.492 45.242C384.958 45.598 384.216 45.776 383.267 45.776H353.363L354.253 39.368H379.173L377.66 40.703C378.016 38.3297 377.927 36.2233 377.393 34.384C376.859 32.4853 375.85 30.9723 374.367 29.845C372.943 28.7177 370.955 28.154 368.404 28.154C365.793 28.154 363.598 28.7473 361.818 29.934C360.038 31.1207 358.644 32.6633 357.635 34.562C356.626 36.4013 355.944 38.389 355.588 40.525L355.143 43.284C354.431 47.6153 355.143 51.0567 357.279 53.608C359.415 56.1593 362.678 57.435 367.069 57.435C368.849 57.435 370.688 57.257 372.587 56.901C374.486 56.4857 376.206 55.833 377.749 54.943C378.876 54.2903 379.855 54.0233 380.686 54.142C381.576 54.2013 382.258 54.5277 382.733 55.121C383.267 55.655 383.593 56.3373 383.712 57.168C383.831 57.9393 383.682 58.77 383.267 59.66C382.911 60.4907 382.258 61.2323 381.309 61.885C379.232 63.2497 376.77 64.2583 373.922 64.911C371.074 65.5637 368.463 65.89 366.09 65.89ZM408.987 65.89C405.724 65.89 402.846 65.1187 400.354 63.576C397.922 62.0333 396.023 59.8677 394.658 57.079C393.294 54.231 392.611 50.9083 392.611 47.111C392.611 42.127 393.472 37.6473 395.192 33.672C396.972 29.6373 399.494 26.463 402.757 24.149C406.08 21.7757 409.996 20.589 414.505 20.589C417.828 20.589 420.765 21.39 423.316 22.992C425.868 24.594 427.648 26.9673 428.656 30.112L428.033 30.023L431.682 6.794C431.979 4.95466 432.661 3.61966 433.729 2.78899C434.797 1.95833 436.251 1.54299 438.09 1.54299C439.811 1.54299 441.057 2.07699 441.828 3.145C442.659 4.213 442.926 5.78533 442.629 7.862L434.352 60.016C434.056 61.8553 433.373 63.2793 432.305 64.288C431.237 65.2373 429.784 65.712 427.944 65.712C426.224 65.712 424.978 65.1187 424.206 63.932C423.494 62.686 423.316 61.0543 423.672 59.037L424.473 54.142L424.562 56.812C422.96 59.6007 420.824 61.8257 418.154 63.487C415.484 65.089 412.429 65.89 408.987 65.89ZM413.348 57.435C416.078 57.435 418.362 56.6637 420.201 55.121C422.1 53.519 423.554 51.4127 424.562 48.802C425.571 46.132 426.075 43.1653 426.075 39.902C426.075 36.4013 425.215 33.7313 423.494 31.892C421.833 29.9933 419.519 29.044 416.552 29.044C413.882 29.044 411.598 29.8153 409.699 31.358C407.801 32.9007 406.347 35.007 405.338 37.677C404.33 40.2877 403.825 43.2543 403.825 46.577C403.825 50.0777 404.656 52.7773 406.317 54.676C408.038 56.5153 410.382 57.435 413.348 57.435ZM459.949 65.89C457.279 65.89 454.847 65.2967 452.651 64.11C450.456 62.864 448.676 61.2323 447.311 59.215C446.006 57.1977 445.353 54.943 445.353 52.451C445.353 49.3657 446.214 46.8737 447.934 44.975C449.655 43.017 452.325 41.5633 455.944 40.614C459.564 39.6647 464.192 39.19 469.828 39.19H476.948L475.969 45.598H470.362C466.862 45.598 464.073 45.776 461.996 46.132C459.92 46.488 458.436 47.111 457.546 48.001C456.656 48.891 456.211 50.137 456.211 51.739C456.211 53.8157 456.894 55.4177 458.258 56.545C459.682 57.6723 461.403 58.236 463.42 58.236C465.319 58.236 467.04 57.8503 468.582 57.079C470.125 56.2483 471.43 55.0913 472.498 53.608C473.566 52.0653 474.249 50.2557 474.545 48.179L476.236 37.588C476.711 34.7993 476.266 32.6633 474.901 31.18C473.596 29.6967 471.282 28.955 467.959 28.955C466.001 28.955 464.103 29.1627 462.263 29.578C460.424 29.934 458.525 30.557 456.567 31.447C455.44 31.9217 454.431 32.07 453.541 31.892C452.651 31.714 451.91 31.3283 451.316 30.735C450.782 30.0823 450.486 29.3407 450.426 28.51C450.367 27.62 450.604 26.7597 451.138 25.929C451.732 25.0983 452.681 24.3863 453.986 23.793C456.478 22.6657 459.059 21.8647 461.729 21.39C464.459 20.856 467.01 20.589 469.383 20.589C474.071 20.589 477.749 21.4493 480.419 23.17C483.089 24.8907 484.899 27.2343 485.848 30.201C486.798 33.1677 486.976 36.5497 486.382 40.347L483.267 60.194C483.03 62.0333 482.377 63.4277 481.309 64.377C480.301 65.267 478.936 65.712 477.215 65.712C475.613 65.712 474.397 65.2077 473.566 64.199C472.795 63.131 472.558 61.5883 472.854 59.571L473.744 53.964L474.367 55.744C473.537 58.058 472.35 59.9863 470.807 61.529C469.324 63.0123 467.633 64.11 465.734 64.822C463.895 65.534 461.967 65.89 459.949 65.89Z" fill="white"/>
</svg>
